<svg xmlns="http://www.w3.org/2000/svg" width="89.1" height="27"><style>.st0{fill:#0063d3}</style><path class="st0" d="M11.9 0c.3.1.6.1.9.1.4.1.8.1 1.2.2.1 0 .2.1.1.2-.1 1.3-.2 2.6-.3 4 0 .2-.1.2-.2.1-.7-.2-1.4-.3-2-.2-.8 0-1.4.6-1.7 1.5-.3.7-.3 1.4-.3 2.1 0 .4 0 .4.4.4h3.7c.2 0 .2 0 .2.2v4c0 .2-.1.2-.2.2H9.8c-.2 0-.2.1-.2.2v13.3c0 .2 0 .3-.3.3H3.8c-.3 0-.3 0-.3-.3V13.1c0-.2 0-.3-.3-.3H-.1V8.4c.1-.1.2-.1.3-.1h3c.3 0 .3 0 .3-.3 0-1.1 0-2.2.3-3.3.2-1.1.6-2.1 1.4-2.9C5.7 1.3 6.3.9 7 .6 7.8.2 8.8 0 9.7 0h2.2zM47.3 27c-.3-.1-.6-.1-.9-.1-2-.3-3.8-1-5.3-2.3-1.6-1.3-2.5-3.1-2.9-5.1-.3-1.7-.3-3.4.2-5 .9-2.8 2.7-4.7 5.4-5.7 1.8-.7 3.7-.9 5.7-.7 1.1.1 2.2.4 3.3.9.2 0 .3.1.3.2-.1 1.4-.3 2.8-.4 4.2v.2c-.1 0-.1-.1-.2-.1-1.5-.8-3.1-1.1-4.7-.7-1.9.5-2.9 1.8-3.2 3.6-.2 1.2-.2 2.3.4 3.4.8 1.4 2 2.2 3.6 2.5 1.6.2 3.1 0 4.5-.7 0 0 .1-.1.2 0 0 .7 0 1.4.1 2.1 0 .8 0 1.5.1 2.3 0 .1 0 .2-.2.2-1.2.4-2.4.6-3.6.7H47.8c-.3.1-.4.1-.5.1z"/><path d="M89.1 9.4c-.1.2-.1.4-.1.6-.1 1.1-.1 2.2-.2 3.2 0 .2 0 .2-.2.2-1-.2-2-.3-2.9 0-1.5.3-2.4 1.4-2.9 2.8-.3.9-.4 1.9-.4 2.9v7.3c0 .2 0 .3-.2.3h-5.6c-.2 0-.2 0-.2-.2V8.8c0-.2.1-.2.2-.2h5c.2 0 .3 0 .2.2V12c.1-.1.1-.2.2-.3.4-.8.8-1.5 1.4-2.1 1.1-1.1 2.5-1.5 4-1.4.6 0 1.1.1 1.7.2v1z" fill="#f70080"/><path d="M47.6 27c.1-.1.3 0 .4 0h-.4z" fill="#4183dc"/><path d="M48.1 27h.4-.4z" fill="#1f75d7"/><path d="M48.4 27h.3-.3z" fill="#3b80dc"/><path d="M48.7 27c.1 0 .2-.1.3 0h-.3z" fill="#6196e0"/><path class="st0" d="M61.8 16.1c.1-.1.2-.1.2-.2l4.8-7.2c.1-.1.2-.2.4-.2h6.3c0 .1-.1.1-.1.2-1.9 2.6-3.9 5.3-5.8 7.9-.1.1-.1.2 0 .4 2.1 3.1 4.2 6.3 6.3 9.4 0 .1.1.1.1.2-.1.1-.1 0-.2 0h-6.9c-.2 0-.2 0-.3-.2-1.5-2.9-3.1-5.7-4.6-8.6 0-.1-.1-.2-.1-.2-.1.1 0 .2 0 .2v8.5c0 .2-.1.3-.3.3h-5.5c-.2 0-.2-.1-.2-.2V.7c0-.2 0-.2.2-.2h5.6c.2 0 .3 0 .3.3v15.1c-.2 0-.2 0-.2.2zM23.2 13.5v12.8c0 .2 0 .3-.3.3h-5.6c-.2 0-.3 0-.3-.2V.7c0-.2 0-.2.2-.2h5.6c.2 0 .2.1.2.2.2 4.2.2 8.5.2 12.8zM28.4 17.5V8.7c0-.2 0-.3.3-.3h5.6c.2 0 .2 0 .2.2v17.7c0 .2-.1.2-.2.2h-5.6c-.2 0-.2-.1-.2-.2-.1-2.9-.1-5.9-.1-8.8zM31.4 5.4h-2.8c-.2 0-.2 0-.2-.2V1c0-.2 0-.2.2-.2h5.7c.2 0 .2 0 .2.2v4.2c0 .2 0 .2-.2.2h-2.9z"/></svg>